<svg viewBox="0 0 740 262" style="width:100%;max-width:720px;height:auto" xmlns="http://www.w3.org/2000/svg"><rect x="300" y="30" width="160" height="40" rx="9" fill="#eef3fb" stroke="#2563eb" stroke-width="2"/><text x="380" y="55" font-size="13" fill="#16203a" font-weight="600" text-anchor="middle" font-family="Segoe UI,Arial,sans-serif">n = 1</text><line x1="380" y1="70" x2="380" y2="88" stroke="#2563eb" stroke-width="2.5"/><polygon points="374,88 380,98 386,88" fill="#2563eb"/><rect x="285" y="98" width="190" height="44" rx="9" fill="#fff" stroke="#64748b" stroke-width="2"/><text x="380" y="125" font-size="13" fill="#16203a" font-weight="600" text-anchor="middle" font-family="Segoe UI,Arial,sans-serif">is n &lt; 6 ?</text><line x1="475" y1="120" x2="590" y2="120" stroke="#16a34a" stroke-width="2.5"/><polygon points="590,114 600,120 590,126" fill="#16a34a"/><text x="537" y="108" font-size="11" fill="#16a34a" font-weight="600" text-anchor="middle" font-family="Segoe UI,Arial,sans-serif">yes</text><rect x="600" y="98" width="110" height="44" rx="9" fill="#e9f7ef" stroke="#16a34a" stroke-width="2"/><text x="655" y="120" font-size="12" fill="#16203a" font-weight="600" text-anchor="middle" font-family="Segoe UI,Arial,sans-serif">print n</text><text x="655" y="137" font-size="10" fill="#64748b" font-weight="600" text-anchor="middle" font-family="Segoe UI,Arial,sans-serif">n = n + 1</text><path d="M655,142 V178 H380 V144" fill="none" stroke="#16a34a" stroke-width="2.5"/><polygon points="374,158 380,146 386,158" fill="#16a34a"/><line x1="380" y1="142" x2="380" y2="200" stroke="#64748b" stroke-width="2.5"/><polygon points="374,200 380,210 386,200" fill="#64748b"/><text x="330" y="168" font-size="11" fill="#64748b" font-weight="600" text-anchor="end" font-family="Segoe UI,Arial,sans-serif">no</text><rect x="300" y="210" width="160" height="40" rx="9" fill="#f1f5f9" stroke="#64748b" stroke-width="2"/><text x="380" y="235" font-size="12" fill="#16203a" font-weight="600" text-anchor="middle" font-family="Segoe UI,Arial,sans-serif">loop ends</text></svg>