<svg viewBox="0 0 760 160" style="width:100%;max-width:720px;height:auto" xmlns="http://www.w3.org/2000/svg"><text x="380" y="20" font-size="12.5" fill="#64748b" font-weight="600" text-anchor="middle" font-family="Segoe UI,Arial,sans-serif">Most web attacks target the server-to-database step</text><rect x="30" y="52" width="150" height="74" rx="12" fill="#eef3fb" stroke="#2563eb" stroke-width="2"/><rect x="72" y="68" width="34.0" height="42.0" rx="4" fill="#eaf1ff" stroke="#2563eb" stroke-width="2"/><line x1="79" y1="79" x2="99.0" y2="79" stroke="#2563eb" stroke-width="2"/><line x1="79" y1="88" x2="99.0" y2="88" stroke="#2563eb" stroke-width="2"/><line x1="79" y1="97" x2="94.0" y2="97" stroke="#2563eb" stroke-width="2"/><text x="105" y="140" font-size="12" fill="#64748b" font-weight="600" text-anchor="middle" font-family="Segoe UI,Arial,sans-serif">Browser</text><line x1="180" y1="76" x2="290" y2="76" stroke="#16a34a" stroke-width="2.5"/><polygon points="290,70 300,76 290,82" fill="#16a34a"/><text x="240" y="66" font-size="10" fill="#16a34a" font-weight="600" text-anchor="middle" font-family="Segoe UI,Arial,sans-serif">HTTPS request</text><line x1="300" y1="108" x2="170" y2="108" stroke="#64748b" stroke-width="2.5" stroke-dasharray="6 4"/><polygon points="170,102 180,108 170,114" fill="#64748b"/><text x="240" y="124" font-size="9" fill="#64748b" font-weight="600" text-anchor="middle" font-family="Segoe UI,Arial,sans-serif">HTML response</text><rect x="300" y="52" width="160" height="74" rx="12" fill="#fff7ed" stroke="#d97706" stroke-width="2"/><rect x="330" y="82" width="34.0" height="30.0" rx="5" fill="#fde7f1" stroke="#d97706" stroke-width="2"/><path d="M338,82 v-6 a9,9 0 0 1 18,0 v6" fill="none" stroke="#d97706" stroke-width="2"/><circle cx="347" cy="96" r="3.5" fill="#d97706"/><text x="380" y="140" font-size="12" fill="#d97706" font-weight="600" text-anchor="middle" font-family="Segoe UI,Arial,sans-serif">Web server</text><line x1="460" y1="76" x2="580" y2="76" stroke="#64748b" stroke-width="2.5"/><polygon points="580,70 590,76 580,82" fill="#64748b"/><text x="525" y="66" font-size="10" fill="#64748b" font-weight="600" text-anchor="middle" font-family="Segoe UI,Arial,sans-serif">query</text><line x1="590" y1="108" x2="450" y2="108" stroke="#64748b" stroke-width="2.5" stroke-dasharray="6 4"/><polygon points="450,102 460,108 450,114" fill="#64748b"/><text x="525" y="124" font-size="9" fill="#64748b" font-weight="600" text-anchor="middle" font-family="Segoe UI,Arial,sans-serif">rows</text><rect x="590" y="52" width="120" height="74" rx="12" fill="#e9f7ef" stroke="#16a34a" stroke-width="2"/><text x="650" y="94" font-size="12" fill="#16a34a" font-weight="600" text-anchor="middle" font-family="Segoe UI,Arial,sans-serif">Database</text></svg>