<svg viewBox="0 0 740 228" style="width:100%;max-width:720px;height:auto" xmlns="http://www.w3.org/2000/svg"><text x="360" y="22" font-size="13" fill="#64748b" font-weight="600" text-anchor="middle" font-family="Segoe UI,Arial,sans-serif">Shift every letter by a fixed amount (here, 3)</text><rect x="70" y="50" width="52" height="34" rx="8" fill="#eef3fb" stroke="#2563eb" stroke-width="2"/><text x="96" y="73" font-size="16" fill="#1d4ed8" font-weight="700" text-anchor="middle" font-family="Segoe UI,Arial,sans-serif">A</text><line x1="96" y1="86" x2="96" y2="108" stroke="#64748b" stroke-width="2.5"/><polygon points="90,108 96,118 102,108" fill="#64748b"/><rect x="70" y="118" width="52" height="34" rx="8" fill="#e9f7ef" stroke="#16a34a" stroke-width="2"/><text x="96" y="141" font-size="16" fill="#15803d" font-weight="700" text-anchor="middle" font-family="Segoe UI,Arial,sans-serif">D</text><rect x="148" y="50" width="52" height="34" rx="8" fill="#eef3fb" stroke="#2563eb" stroke-width="2"/><text x="174" y="73" font-size="16" fill="#1d4ed8" font-weight="700" text-anchor="middle" font-family="Segoe UI,Arial,sans-serif">B</text><line x1="174" y1="86" x2="174" y2="108" stroke="#64748b" stroke-width="2.5"/><polygon points="168,108 174,118 180,108" fill="#64748b"/><rect x="148" y="118" width="52" height="34" rx="8" fill="#e9f7ef" stroke="#16a34a" stroke-width="2"/><text x="174" y="141" font-size="16" fill="#15803d" font-weight="700" text-anchor="middle" font-family="Segoe UI,Arial,sans-serif">E</text><rect x="226" y="50" width="52" height="34" rx="8" fill="#eef3fb" stroke="#2563eb" stroke-width="2"/><text x="252" y="73" font-size="16" fill="#1d4ed8" font-weight="700" text-anchor="middle" font-family="Segoe UI,Arial,sans-serif">C</text><line x1="252" y1="86" x2="252" y2="108" stroke="#64748b" stroke-width="2.5"/><polygon points="246,108 252,118 258,108" fill="#64748b"/><rect x="226" y="118" width="52" height="34" rx="8" fill="#e9f7ef" stroke="#16a34a" stroke-width="2"/><text x="252" y="141" font-size="16" fill="#15803d" font-weight="700" text-anchor="middle" font-family="Segoe UI,Arial,sans-serif">F</text><rect x="304" y="50" width="52" height="34" rx="8" fill="#eef3fb" stroke="#2563eb" stroke-width="2"/><text x="330" y="73" font-size="16" fill="#1d4ed8" font-weight="700" text-anchor="middle" font-family="Segoe UI,Arial,sans-serif">D</text><line x1="330" y1="86" x2="330" y2="108" stroke="#64748b" stroke-width="2.5"/><polygon points="324,108 330,118 336,108" fill="#64748b"/><rect x="304" y="118" width="52" height="34" rx="8" fill="#e9f7ef" stroke="#16a34a" stroke-width="2"/><text x="330" y="141" font-size="16" fill="#15803d" font-weight="700" text-anchor="middle" font-family="Segoe UI,Arial,sans-serif">G</text><rect x="382" y="50" width="52" height="34" rx="8" fill="#eef3fb" stroke="#2563eb" stroke-width="2"/><text x="408" y="73" font-size="16" fill="#1d4ed8" font-weight="700" text-anchor="middle" font-family="Segoe UI,Arial,sans-serif">E</text><line x1="408" y1="86" x2="408" y2="108" stroke="#64748b" stroke-width="2.5"/><polygon points="402,108 408,118 414,108" fill="#64748b"/><rect x="382" y="118" width="52" height="34" rx="8" fill="#e9f7ef" stroke="#16a34a" stroke-width="2"/><text x="408" y="141" font-size="16" fill="#15803d" font-weight="700" text-anchor="middle" font-family="Segoe UI,Arial,sans-serif">H</text><rect x="460" y="50" width="52" height="34" rx="8" fill="#eef3fb" stroke="#2563eb" stroke-width="2"/><text x="486" y="73" font-size="16" fill="#1d4ed8" font-weight="700" text-anchor="middle" font-family="Segoe UI,Arial,sans-serif">F</text><line x1="486" y1="86" x2="486" y2="108" stroke="#64748b" stroke-width="2.5"/><polygon points="480,108 486,118 492,108" fill="#64748b"/><rect x="460" y="118" width="52" height="34" rx="8" fill="#e9f7ef" stroke="#16a34a" stroke-width="2"/><text x="486" y="141" font-size="16" fill="#15803d" font-weight="700" text-anchor="middle" font-family="Segoe UI,Arial,sans-serif">I</text><rect x="538" y="50" width="52" height="34" rx="8" fill="#eef3fb" stroke="#2563eb" stroke-width="2"/><text x="564" y="73" font-size="16" fill="#1d4ed8" font-weight="700" text-anchor="middle" font-family="Segoe UI,Arial,sans-serif">G</text><line x1="564" y1="86" x2="564" y2="108" stroke="#64748b" stroke-width="2.5"/><polygon points="558,108 564,118 570,108" fill="#64748b"/><rect x="538" y="118" width="52" height="34" rx="8" fill="#e9f7ef" stroke="#16a34a" stroke-width="2"/><text x="564" y="141" font-size="16" fill="#15803d" font-weight="700" text-anchor="middle" font-family="Segoe UI,Arial,sans-serif">J</text><rect x="616" y="50" width="52" height="34" rx="8" fill="#eef3fb" stroke="#2563eb" stroke-width="2"/><text x="642" y="73" font-size="16" fill="#1d4ed8" font-weight="700" text-anchor="middle" font-family="Segoe UI,Arial,sans-serif">H</text><line x1="642" y1="86" x2="642" y2="108" stroke="#64748b" stroke-width="2.5"/><polygon points="636,108 642,118 648,108" fill="#64748b"/><rect x="616" y="118" width="52" height="34" rx="8" fill="#e9f7ef" stroke="#16a34a" stroke-width="2"/><text x="642" y="141" font-size="16" fill="#15803d" font-weight="700" text-anchor="middle" font-family="Segoe UI,Arial,sans-serif">K</text><text x="360" y="185" font-size="15" fill="#16203a" font-weight="700" text-anchor="middle" font-family="Segoe UI,Arial,sans-serif">HELLO  becomes  KHOOR</text><text x="360" y="210" font-size="11.5" fill="#64748b" font-weight="600" text-anchor="middle" font-family="Segoe UI,Arial,sans-serif">Only 25 shifts exist, so a computer breaks it instantly</text></svg>