<svg viewBox="0 0 780 272" style="width:100%;max-width:720px;height:auto" xmlns="http://www.w3.org/2000/svg"><text x="380" y="22" font-size="12" fill="#64748b" font-weight="600" text-anchor="middle" font-family="Segoe UI,Arial,sans-serif">Symmetric uses one shared key; asymmetric uses a public and a private key</text><rect x="20" y="38" width="360" height="224" rx="14" fill="#ecfeff" stroke="#0891b2" stroke-width="2"/><text x="200" y="62" font-size="15" fill="#0891b2" font-weight="700" text-anchor="middle" font-family="Segoe UI,Arial,sans-serif">Symmetric (AES)</text><rect x="35" y="92" width="34.0" height="42.0" rx="4" fill="#eaf1ff" stroke="#2563eb" stroke-width="2"/><line x1="42" y1="103" x2="62.0" y2="103" stroke="#2563eb" stroke-width="2"/><line x1="42" y1="112" x2="62.0" y2="112" stroke="#2563eb" stroke-width="2"/><line x1="42" y1="121" x2="57.0" y2="121" stroke="#2563eb" stroke-width="2"/><text x="52" y="150" font-size="10" fill="#64748b" font-weight="600" text-anchor="middle" font-family="Segoe UI,Arial,sans-serif">plaintext</text><circle cx="92" cy="98" r="9" fill="none" stroke="#d97706" stroke-width="4"/><line x1="100" y1="98" x2="122" y2="98" stroke="#d97706" stroke-width="4"/><line x1="116" y1="98" x2="116" y2="106" stroke="#d97706" stroke-width="4"/><line x1="122" y1="98" x2="122" y2="106" stroke="#d97706" stroke-width="4"/><line x1="78" y1="112" x2="125" y2="112" stroke="#64748b" stroke-width="2.5"/><polygon points="125,106 135,112 125,118" fill="#64748b"/><text x="106" y="150" font-size="9" fill="#64748b" font-weight="600" text-anchor="middle" font-family="Segoe UI,Arial,sans-serif">encrypt</text><rect x="150" y="106" width="34.0" height="30.0" rx="5" fill="#fde7f1" stroke="#dc2626" stroke-width="2"/><path d="M158,106 v-6 a9,9 0 0 1 18,0 v6" fill="none" stroke="#dc2626" stroke-width="2"/><circle cx="167" cy="120" r="3.5" fill="#dc2626"/><text x="167" y="150" font-size="10" fill="#64748b" font-weight="600" text-anchor="middle" font-family="Segoe UI,Arial,sans-serif">cipher</text><circle cx="212" cy="98" r="9" fill="none" stroke="#d97706" stroke-width="4"/><line x1="220" y1="98" x2="242" y2="98" stroke="#d97706" stroke-width="4"/><line x1="236" y1="98" x2="236" y2="106" stroke="#d97706" stroke-width="4"/><line x1="242" y1="98" x2="242" y2="106" stroke="#d97706" stroke-width="4"/><line x1="198" y1="112" x2="245" y2="112" stroke="#64748b" stroke-width="2.5"/><polygon points="245,106 255,112 245,118" fill="#64748b"/><text x="226" y="150" font-size="9" fill="#64748b" font-weight="600" text-anchor="middle" font-family="Segoe UI,Arial,sans-serif">decrypt</text><rect x="270" y="92" width="34.0" height="42.0" rx="4" fill="#eaf1ff" stroke="#2563eb" stroke-width="2"/><line x1="277" y1="103" x2="297.0" y2="103" stroke="#2563eb" stroke-width="2"/><line x1="277" y1="112" x2="297.0" y2="112" stroke="#2563eb" stroke-width="2"/><line x1="277" y1="121" x2="292.0" y2="121" stroke="#2563eb" stroke-width="2"/><text x="287" y="150" font-size="10" fill="#64748b" font-weight="600" text-anchor="middle" font-family="Segoe UI,Arial,sans-serif">plaintext</text><text x="200" y="182" font-size="11.5" fill="#16203a" font-weight="600" text-anchor="middle" font-family="Segoe UI,Arial,sans-serif">Use: bulk data and PII at rest</text><rect x="35" y="200" width="155" height="26" rx="13" fill="#d1fae5" stroke="#cbd5e1" stroke-width="1.5"/><text x="112.5" y="217" font-size="12.5" fill="#16a34a" font-weight="600" text-anchor="middle" font-family="Segoe UI,Arial,sans-serif">Fast and efficient</text><rect x="200" y="200" width="160" height="26" rx="13" fill="#fee2e2" stroke="#cbd5e1" stroke-width="1.5"/><text x="280.0" y="217" font-size="12.5" fill="#dc2626" font-weight="600" text-anchor="middle" font-family="Segoe UI,Arial,sans-serif">Key sharing is hard</text><rect x="400" y="38" width="360" height="224" rx="14" fill="#fffbeb" stroke="#d97706" stroke-width="2"/><text x="580" y="62" font-size="15" fill="#d97706" font-weight="700" text-anchor="middle" font-family="Segoe UI,Arial,sans-serif">Asymmetric (RSA)</text><rect x="415" y="92" width="34.0" height="42.0" rx="4" fill="#eaf1ff" stroke="#2563eb" stroke-width="2"/><line x1="422" y1="103" x2="442.0" y2="103" stroke="#2563eb" stroke-width="2"/><line x1="422" y1="112" x2="442.0" y2="112" stroke="#2563eb" stroke-width="2"/><line x1="422" y1="121" x2="437.0" y2="121" stroke="#2563eb" stroke-width="2"/><text x="432" y="150" font-size="10" fill="#64748b" font-weight="600" text-anchor="middle" font-family="Segoe UI,Arial,sans-serif">plaintext</text><circle cx="472" cy="98" r="9" fill="none" stroke="#16a34a" stroke-width="4"/><line x1="480" y1="98" x2="502" y2="98" stroke="#16a34a" stroke-width="4"/><line x1="496" y1="98" x2="496" y2="106" stroke="#16a34a" stroke-width="4"/><line x1="502" y1="98" x2="502" y2="106" stroke="#16a34a" stroke-width="4"/><line x1="458" y1="112" x2="505" y2="112" stroke="#64748b" stroke-width="2.5"/><polygon points="505,106 515,112 505,118" fill="#64748b"/><text x="488" y="150" font-size="9" fill="#16a34a" font-weight="600" text-anchor="middle" font-family="Segoe UI,Arial,sans-serif">public key</text><rect x="530" y="106" width="34.0" height="30.0" rx="5" fill="#fde7f1" stroke="#dc2626" stroke-width="2"/><path d="M538,106 v-6 a9,9 0 0 1 18,0 v6" fill="none" stroke="#dc2626" stroke-width="2"/><circle cx="547" cy="120" r="3.5" fill="#dc2626"/><text x="547" y="150" font-size="10" fill="#64748b" font-weight="600" text-anchor="middle" font-family="Segoe UI,Arial,sans-serif">cipher</text><circle cx="595" cy="98" r="9" fill="none" stroke="#2563eb" stroke-width="4"/><line x1="603" y1="98" x2="625" y2="98" stroke="#2563eb" stroke-width="4"/><line x1="619" y1="98" x2="619" y2="106" stroke="#2563eb" stroke-width="4"/><line x1="625" y1="98" x2="625" y2="106" stroke="#2563eb" stroke-width="4"/><line x1="581" y1="112" x2="628" y2="112" stroke="#64748b" stroke-width="2.5"/><polygon points="628,106 638,112 628,118" fill="#64748b"/><text x="612" y="150" font-size="9" fill="#2563eb" font-weight="600" text-anchor="middle" font-family="Segoe UI,Arial,sans-serif">private key</text><rect x="652" y="92" width="34.0" height="42.0" rx="4" fill="#eaf1ff" stroke="#2563eb" stroke-width="2"/><line x1="659" y1="103" x2="679.0" y2="103" stroke="#2563eb" stroke-width="2"/><line x1="659" y1="112" x2="679.0" y2="112" stroke="#2563eb" stroke-width="2"/><line x1="659" y1="121" x2="674.0" y2="121" stroke="#2563eb" stroke-width="2"/><text x="669" y="150" font-size="10" fill="#64748b" font-weight="600" text-anchor="middle" font-family="Segoe UI,Arial,sans-serif">plaintext</text><text x="580" y="182" font-size="11.5" fill="#16203a" font-weight="600" text-anchor="middle" font-family="Segoe UI,Arial,sans-serif">Use: TLS handshake and signatures</text><rect x="415" y="200" width="155" height="26" rx="13" fill="#d1fae5" stroke="#cbd5e1" stroke-width="1.5"/><text x="492.5" y="217" font-size="12.5" fill="#16a34a" font-weight="600" text-anchor="middle" font-family="Segoe UI,Arial,sans-serif">Solves key sharing</text><rect x="580" y="200" width="160" height="26" rx="13" fill="#fee2e2" stroke="#cbd5e1" stroke-width="1.5"/><text x="660.0" y="217" font-size="12.5" fill="#dc2626" font-weight="600" text-anchor="middle" font-family="Segoe UI,Arial,sans-serif">Slower to run</text></svg>