<svg viewBox="0 0 740 270" style="width:100%;max-width:720px;height:auto" xmlns="http://www.w3.org/2000/svg"><rect x="40" y="30" width="420" height="230" rx="10" fill="#fff" stroke="#64748b" stroke-width="2"/><rect x="40" y="30" width="420" height="34" rx="10" fill="#f1f5f9" stroke="#64748b" stroke-width="2"/><text x="60" y="52" font-size="11.5" fill="#16203a" font-weight="600" text-anchor="start" font-family="Segoe UI,Arial,sans-serif">From: Netflix Billing &lt;help@netflix-verify.shop&gt;</text><text x="60" y="86" font-size="12" fill="#16203a" font-weight="700" text-anchor="start" font-family="Segoe UI,Arial,sans-serif">Subject: Your account is LOCKED</text><text x="60" y="116" font-size="11.5" fill="#64748b" font-weight="500" text-anchor="start" font-family="Segoe UI,Arial,sans-serif">Dear Customer,</text><text x="60" y="140" font-size="11.5" fill="#64748b" font-weight="500" text-anchor="start" font-family="Segoe UI,Arial,sans-serif">Verify NOW within 24 hours or lose access.</text><text x="60" y="164" font-size="11.5" fill="#2563eb" font-weight="500" text-anchor="start" font-family="Segoe UI,Arial,sans-serif">Click here: http://paypa1-secure.shop/login</text><text x="60" y="196" font-size="11.5" fill="#64748b" font-weight="500" text-anchor="start" font-family="Segoe UI,Arial,sans-serif">Send us your password to confirm.</text><line x1="462" y1="82" x2="500" y2="82" stroke="#dc2626" stroke-width="2"/><rect x="500" y="68" width="210" height="22" rx="6" fill="#fdecec" stroke="#dc2626" stroke-width="2"/><text x="605" y="83" font-size="11" fill="#dc2626" font-weight="600" text-anchor="middle" font-family="Segoe UI,Arial,sans-serif">look-alike sender domain</text><line x1="462" y1="112" x2="500" y2="112" stroke="#dc2626" stroke-width="2"/><rect x="500" y="98" width="210" height="22" rx="6" fill="#fdecec" stroke="#dc2626" stroke-width="2"/><text x="605" y="113" font-size="11" fill="#dc2626" font-weight="600" text-anchor="middle" font-family="Segoe UI,Arial,sans-serif">generic greeting</text><line x1="462" y1="136" x2="500" y2="136" stroke="#dc2626" stroke-width="2"/><rect x="500" y="122" width="210" height="22" rx="6" fill="#fdecec" stroke="#dc2626" stroke-width="2"/><text x="605" y="137" font-size="11" fill="#dc2626" font-weight="600" text-anchor="middle" font-family="Segoe UI,Arial,sans-serif">urgency</text><line x1="462" y1="160" x2="500" y2="160" stroke="#dc2626" stroke-width="2"/><rect x="500" y="146" width="210" height="22" rx="6" fill="#fdecec" stroke="#dc2626" stroke-width="2"/><text x="605" y="161" font-size="11" fill="#dc2626" font-weight="600" text-anchor="middle" font-family="Segoe UI,Arial,sans-serif">fake look-alike link</text><line x1="462" y1="192" x2="500" y2="192" stroke="#dc2626" stroke-width="2"/><rect x="500" y="178" width="210" height="22" rx="6" fill="#fdecec" stroke="#dc2626" stroke-width="2"/><text x="605" y="193" font-size="11" fill="#dc2626" font-weight="600" text-anchor="middle" font-family="Segoe UI,Arial,sans-serif">asks for your password</text></svg>