<svg viewBox="0 0 740 188" style="width:100%;max-width:720px;height:auto" xmlns="http://www.w3.org/2000/svg"><rect x="40" y="55" width="190" height="80" rx="12" fill="#eef3fb" stroke="#2563eb" stroke-width="2"/><text x="135" y="88" font-size="12" fill="#64748b" font-weight="600" text-anchor="middle" font-family="Segoe UI,Arial,sans-serif">Your computer</text><text x="135" y="110" font-size="11" fill="#64748b" font-weight="600" text-anchor="middle" font-family="Segoe UI,Arial,sans-serif">terminal</text><rect x="510" y="55" width="190" height="80" rx="12" fill="#e9f7ef" stroke="#16a34a" stroke-width="2"/><text x="605" y="88" font-size="12" fill="#16a34a" font-weight="600" text-anchor="middle" font-family="Segoe UI,Arial,sans-serif">Remote server</text><text x="605" y="110" font-size="11" fill="#64748b" font-weight="600" text-anchor="middle" font-family="Segoe UI,Arial,sans-serif">Linux</text><line x1="230" y1="82" x2="500" y2="82" stroke="#16a34a" stroke-width="2.5"/><polygon points="500,76 510,82 500,88" fill="#16a34a"/><rect x="355" y="72" width="34.0" height="30.0" rx="5" fill="#fde7f1" stroke="#16a34a" stroke-width="2"/><path d="M363,72 v-6 a9,9 0 0 1 18,0 v6" fill="none" stroke="#16a34a" stroke-width="2"/><circle cx="372" cy="86" r="3.5" fill="#16a34a"/><text x="370" y="52" font-size="11" fill="#16a34a" font-weight="600" text-anchor="middle" font-family="Segoe UI,Arial,sans-serif">encrypted SSH tunnel (port 2220)</text><line x1="510" y1="118" x2="220" y2="118" stroke="#64748b" stroke-width="2.5" stroke-dasharray="6 4"/><polygon points="220,112 230,118 220,124" fill="#64748b"/><text x="370" y="140" font-size="10" fill="#64748b" font-weight="600" text-anchor="middle" font-family="Segoe UI,Arial,sans-serif">server replies, still encrypted</text><text x="370" y="170" font-size="11" fill="#64748b" font-weight="600" text-anchor="middle" font-family="Segoe UI,Arial,sans-serif">Anyone sniffing the network sees only scrambled bytes</text></svg>